<svg width="15" height="16" viewBox="0 0 15 16" fill="none" xmlns="http://www.w3.org/2000/svg">
<g clip-path="url(#clip0_822_2050)">
<path d="M11.875 4.25C11.875 4.08424 11.8092 3.92527 11.6919 3.80806C11.5747 3.69085 11.4158 3.625 11.25 3.625H6.25C6.08424 3.625 5.92527 3.69085 5.80806 3.80806C5.69085 3.92527 5.625 4.08424 5.625 4.25C5.625 4.41576 5.69085 4.57473 5.80806 4.69194C5.92527 4.80915 6.08424 4.875 6.25 4.875H9.74125L3.5225 11.0938C3.40865 11.2116 3.34565 11.3695 3.34708 11.5334C3.3485 11.6972 3.41423 11.854 3.53011 11.9699C3.64599 12.0858 3.80275 12.1515 3.96662 12.1529C4.1305 12.1543 4.28837 12.0913 4.40625 11.9775L10.625 5.75875V9.25C10.625 9.41576 10.6908 9.57473 10.8081 9.69194C10.9253 9.80915 11.0842 9.875 11.25 9.875C11.4158 9.875 11.5747 9.80915 11.6919 9.69194C11.8092 9.57473 11.875 9.41576 11.875 9.25V4.25Z" fill="#040404"/>
</g>
<defs>
<clipPath id="clip0_822_2050">
<rect width="15" height="15" fill="white" transform="matrix(-1 0 0 1 15 0.5)"/>
</clipPath>
</defs>
</svg>
